# xmcd
#
# Track frame offsets: 
#        150
#        20129
#        36371
#        54230
#        71326
#        98191
#        113197
#        153845
#        181437
#        199132
#        222915
#        242942
#        274277
#        291222
#
# Disc length: 4482 seconds
#
# Revision: 0
# Processed by: cddbd v1.5.2PL0 Copyright (c) Steve Scherf et al.
# Submitted via: ExactAudioCopyFreeDBPlugin 1.0
#
DISCID=d211800e
DTITLE=Delta Moon - Live's A Song - Live Volume One
DYEAR=2013
DGENRE=Blues
TTITLE0=Hell Bound Train
TTITLE1=Black Cat Oil
TTITLE2=Lonely
TTITLE3=Get Gone
TTITLE4=Black Coffee
TTITLE5=You Got To Move
TTITLE6=Goin' Down South
TTITLE7=I'm A Witness
TTITLE8=Clear Blue Flame
TTITLE9=Stuck In Carlolina
TTITLE10=Life's A Song
TTITLE11=Blind Spot
TTITLE12=Lap Dog
TTITLE13=Shake Your Hips
EXTD=
EXTT0=
EXTT1=
EXTT2=
EXTT3=
EXTT4=
EXTT5=
EXTT6=
EXTT7=
EXTT8=
EXTT9=
EXTT10=
EXTT11=
EXTT12=
EXTT13=
PLAYORDER=
